<?xml version="1.0" standalone="no"?>
<!DOCTYPE svg PUBLIC "-//W3C//DTD SVG 20010904//EN"
 "http://www.w3.org/TR/2001/REC-SVG-20010904/DTD/svg10.dtd">
<svg version="1.0" xmlns="http://www.w3.org/2000/svg"
 width="32.000000pt" height="32.000000pt" viewBox="0 0 32.000000 32.000000"
 preserveAspectRatio="xMidYMid meet">
<metadata>
Created by potrace 1.16, written by Peter Selinger 2001-2019
</metadata>
<g transform="translate(0.000000,32.000000) scale(0.100000,-0.100000)"
fill="#000000" stroke="none">
<path d="M0 160 l0 -160 160 0 160 0 0 160 0 160 -160 0 -160 0 0 -160z m267
68 c-3 -13 -9 -47 -13 -76 -4 -29 -10 -54 -14 -57 -3 -2 -19 3 -35 11 -15 8
-36 12 -45 9 -12 -4 -19 1 -23 14 -3 11 -17 22 -36 26 -17 3 -33 10 -36 15 -5
7 168 79 194 80 9 0 11 -7 8 -22z"/>
</g>
</svg>
